<svg id="Layer_1" data-name="Layer 1" xmlns="http://www.w3.org/2000/svg" xmlns:xlink="http://www.w3.org/1999/xlink" viewBox="0 0 2669.79 2839">
  <defs>
    <clipPath id="clip-path" transform="translate(-430.21 -103)">
      <rect width="2800" height="2800" fill="none"/>
    </clipPath>
  </defs>

  <style>
    #perna {
      transform-origin: 620px 1450px;
      animation: mov-perna 5s ease-in-out infinite alternate;
    }


    @keyframes mov-perna {
      to {
        transform: rotate(15deg);
      }
    }

  </style>

  <g clip-path="url(#clip-path)">
    <g>
      <path d="M1000.17,932.12l0-.29a322,322,0,0,0-85.13-253.46,809.08,809.08,0,0,0-122-106.56c-18-12.81-36.9-15.85-58.85-18.31S688.5,557,673.46,573.16s-18.56,43.41-4.64,60.56c12.93,15.94,36.75,19.36,56.48,13.66s36.34-18.77,52.41-31.54c13.54,21.6,10.41,52.94,15.47,77.93,15.52,76.74,45.51,128.53,79.88,164.68A1308,1308,0,0,0,644.16,1033c65,25.55,102.13,104.33,129,168.81,96.29-67,187.3-158.48,226.44-268l.42-.51.09-.9c0-.06.05-.13.07-.2Z" transform="translate(-430.21 -103)" fill="#ffc179"/>
      <path d="M697.64,754.39A34.52,34.52,0,0,0,709.1,694.1c5.83-6.5,5.17-14.34,4-23s-5.14-16.67-9.71-24.11c-4.43-7.2-9.77-14.23-17.24-18.19s-17.52-4.1-23.72,1.66c-6.6-18.82-28.24-29.54-48.08-27.5s-37.15,18.89-39.77,38.65c-17.88-14-47.81-15.52-67.94-5s-33.11,33.43-31.8,56.11c-15.92,9.33-35.4,25.26-41.72,42.59s-2.3,39.25,12.79,49.86c-13.63,14.72-18.25,35.78-10.19,54.15s27.58,31.1,47.64,31C475,885.5,479,906.48,490,919.77s30.45,18.89,46.85,13.49c14.1,16.65,32.61,24.47,54.25,21.7A67,67,0,0,0,642,918.24c24.46-7.47,45.51-17.74,61.49-37.71,14.7-18.37,18.18-44,13.23-67S712.17,772.89,697.64,754.39Z" transform="translate(-430.21 -103)" fill="#4a3214"/>
      <path d="M1028.58,1546.75a1701.54,1701.54,0,0,0,518.71,264.39c-54.87,25.37-92.78,54-126.57,104.16s-62.15,104.12-100.89,150.52-90.55,85.7-150.52,93.27c13.18,85.3,32,174.46,59.51,256.25,30.59-20.21,50.24-55,56.6-91.11a137.11,137.11,0,0,0-24.56-104.13c197.13-129.63,382.94-258,592.8-365.77-88-207.86-278.71-365.33-494.32-432.13-64.86-20.09-134.25-31.62-200.71-17.68S1052.86,1483.35,1028.58,1546.75Z" transform="translate(-430.21 -103)" fill="#ffc179"/>
      <path d="M1359.34,1422.2c-64.86-20.09-134.25-31.62-200.71-17.68s-105.77,78.83-130.05,142.23a1701.59,1701.59,0,0,0,374.15,212.49,600.92,600.92,0,0,0,95.35-66.06c-14.9-23.62-37.33-48.67-52.23-72.3,33.81,7,65.32,10.16,99.12,17.12a656.14,656.14,0,0,0,59.77-92.07A833.62,833.62,0,0,0,1359.34,1422.2Z" transform="translate(-430.21 -103)" fill="#5c2008"/>
      <path d="M1513.17,1828.82c-37.26,21.56-66,47.55-92.27,86.48-33.81,50.12-62.18,104.12-100.94,150.52s-90.59,85.7-150.59,93.27c13.19,85.3,32,174.46,59.53,256.25,30.61-20.21,50.27-55,56.64-91.11A137.08,137.08,0,0,0,1261,2220.1c124.93-82.11,245.32-163.7,370.16-239.89C1578.6,1942.12,1536.7,1889.22,1513.17,1828.82Z" transform="translate(-430.21 -103)" fill="#ff5d17"/>
      <path d="M1513.17,1828.82a271.85,271.85,0,0,0-54.73,41,456.22,456.22,0,0,0,74.48,171.85q48.81-31.2,98.2-61.45C1578.6,1942.12,1536.7,1889.22,1513.17,1828.82Z" transform="translate(-430.21 -103)" fill="#bd4511"/>
      <path d="M1220.7,2196.19a175.55,175.55,0,0,0,9.18-56,186.33,186.33,0,0,1-60.51,18.93c13.19,85.3,32,174.46,59.53,256.25,30.61-20.21,50.27-55,56.64-91.11A137.08,137.08,0,0,0,1261,2220.1l10-6.58A130.85,130.85,0,0,0,1220.7,2196.19Z" transform="translate(-430.21 -103)" fill="#7d2c0b"/>
      <g opacity="0.1">
        <path d="M1167.54,1412.77l18-4.67C1179.47,1409.41,1173.46,1411,1167.54,1412.77Z" transform="translate(-430.21 -103)"/>
        <path d="M1143.15,1419.1l1.41,2a237,237,0,0,1,23-8.28Z" transform="translate(-430.21 -103)"/>
        <path d="M1369.5,2059.61c107.41-89.79,225-165,317.64-269.87-216.77-53.63-412.88-186.92-542.58-368.69-28.84,12.1-55.09,29.75-78.2,51.31-15.6,22.71-27.93,48.67-37.78,74.39a1701.31,1701.31,0,0,0,518.71,264.39c-54.87,25.37-92.78,54-126.57,104.16s-62.15,104.12-100.89,150.52-90.55,85.7-150.52,93.27c4.56,29.51,9.81,59.49,15.84,89.46C1236.72,2177.88,1302.07,2116,1369.5,2059.61Z" transform="translate(-430.21 -103)"/>
      </g>
      <path d="M1359.34,1422.2c-30.5-9.44-62-17-93.73-20.9a231,231,0,0,0-23.26,17.6c-59.79,51.62-92.07,119.74-124.54,190.4q54.27,35.48,111.14,66.76c52.9-6.65,104.37-24.77,149.25-53.58,53.41-34.28,96.93-83.37,125.76-139.88A829.87,829.87,0,0,0,1359.34,1422.2Z" transform="translate(-430.21 -103)" fill="#421605"/>
      <path d="M976.56,985.88A406.48,406.48,0,0,0,860.28,866.22a1308.22,1308.22,0,0,0-127.49,89.53c3.43,39.51,15.64,78,27.75,115.93,8.13,25.44,17.52,52.66,39.27,68.14,11.09,7.89,24.29,11.71,37.89,12.34C893.39,1104.78,943.18,1048.86,976.56,985.88Z" transform="translate(-430.21 -103)" fill="#d14c13"/>
      <g opacity="0.1">
        <path d="M916.79,842.85A551,551,0,0,0,779.14,615.6c-.47.08-.93.19-1.4.28,13.5,21.6,10.38,52.92,15.44,77.89,15.52,76.74,45.51,128.53,79.88,164.68a1309.72,1309.72,0,0,0-150.95,105.9,102,102,0,0,0,18.53,23.8c20.16,19,42.76,32.33,66.47,18.08C865.06,971.41,936.77,907.44,916.79,842.85Z" transform="translate(-430.21 -103)"/>
      </g>
      <path d="M1264.4,1324.71c-107.25-18.55-213-79-277.83-167.18-56.85-77.34-101.27-254.66-228.7-232.2l-179,31.55c-83.58,149.49-23.8,353.2,100.57,470.95s308.59,157.93,478.2,134.22c23.18-37,24.16-82.74,29.93-127C1229.33,1411.87,1261.15,1371.9,1264.4,1324.71Z" transform="translate(-430.21 -103)" fill="#ff5d17"/>
      <path d="M953.5,1516.52c1.9-24.54-5.63-50.06-22.08-68.37s-42-28.62-66.34-25-43.33,20.9-49.62,44.7c-29.27-19.14-48-41.4-77.27-60.53,50.59-64.13,68.59-152.68,47.07-231.47s-82-145.88-158.21-175.38c-9.84-22.36-29.36-35.43-51-38.44-79.38,149-19.57,349.38,103.37,465.78,109.67,103.83,265.88,147.34,417.58,139.92a273.93,273.93,0,0,0,32.77-45.18C1069.7,1541.21,1011.75,1540.31,953.5,1516.52Z" transform="translate(-430.21 -103)" opacity="0.1"/>
      <path d="M556.85,1020.43c-103.45,163.76-134.61,371.43-83.78,558.33,130.8,31.92,257.11,38.69,388.91,11.24,21.63-4.5,36.7-16.32,53.42-30.75s28.5-35.92,26.85-58S923,1458.19,901,1456.75c-20.49-1.34-39.18,13.82-48.4,32.17s-10.91,39.42-12.46,59.89c-25.05-4.74-48.9-24.36-67.69-41.59-44.54-40.85-108-60.16-167.73-51.06,79-59,126.71-144.05,147.85-240.34,8.66-39.47,10.88-83.16-9.66-118-16.73-28.35-46.72-47-78.27-56.38S589.77,1020.8,556.85,1020.43Z" transform="translate(-430.21 -103)" fill="#ffc179"/>
      <path d="M614.23,1020.73c28.56,0,56.38-7.85,83-18.48.74-27.19,1.52-54.31,1.48-82.53-31.43-34.85-64-66.87-100.67-96.14q-13.16,95.11-26.32,190.22A133.35,133.35,0,0,0,614.23,1020.73Z" transform="translate(-430.21 -103)" fill="#edb370"/>
      <path d="M585.51,914.42a348.36,348.36,0,0,0,75.39,43.36c5.85,17.06,11.44,34.34,16.38,51.77,6.73-2.21,13.4-4.67,20-7.3.74-27.19,1.52-54.31,1.48-82.53-31.43-34.85-64-66.87-100.67-96.14Z" transform="translate(-430.21 -103)" opacity="0.1"/>
      <path d="M671.77,696.57c52.13,67,74.77,156.14,60.94,239.89-49.59-1.58-103.07,1-147.82-20.4s-82.19-65.34-81.47-114.95c.56-38.1,24.23-74,57.19-93.16S635,686.75,671.77,696.57Z" transform="translate(-430.21 -103)" fill="#ffc179"/>
      <path d="M673,692.29c-38-10.13-80.71-8-114.71,11.74s-58.43,56.81-59,96.12c-.75,51.2,37.88,96.51,84.06,118.62.93.44,1.88.84,2.81,1.27a204.46,204.46,0,0,1,14.19-29.58,89.48,89.48,0,0,1-18.91-8.68c-8.8-5.6-16.32-14-18.55-24.2s1.93-22.09,11.21-26.85,22.82.32,24.94,10.53c-1.27-21.28,6-37.38,12.48-57.7,33.56-8.53,63.2-29.69,84.39-57.38A309.76,309.76,0,0,0,673,692.29Z" transform="translate(-430.21 -103)" fill="#4a3214"/>
      <path d="M458.88,1279.78A511.58,511.58,0,0,0,687,1370.63c31.63-45.75,53.18-98.34,65.58-154.81,8.66-39.47,10.88-83.16-9.66-118-16.73-28.35-46.72-47-78.27-56.38s-74.84-20.68-107.76-21.05C507.13,1099.13,474.13,1188,458.88,1279.78Z" transform="translate(-430.21 -103)" fill="#d14c13"/>
      <path d="M831.6,1546.62c-21.91-7-42.54-24.14-59.18-39.4-44.54-40.85-108-60.16-167.73-51.06,79-59,126.71-144.05,147.85-240.34,8.66-39.47,10.88-83.16-9.66-118-16.73-28.35-46.72-47-78.27-56.39-3.6-1.07-7.36-2.17-11.23-3.27,18,64.59,21,133.36,7.94,199.14-18.72,94.71-59,190.57-132.71,252.86a679.69,679.69,0,0,1,304,59.07C832.28,1548.4,831.94,1547.51,831.6,1546.62Z" transform="translate(-430.21 -103)" opacity="0.1"/>
      <g id="perna">
        <path d="M1635.91,707.78c228.68-32.51,449.42-106.38,660-201.41-31.3-82.65,11.42-173.74,89.45-215.2-9.6,91.56-32,190.13-41.63,281.69-70.69,39-128.58,97-187.21,152.45s-120.66,110.2-195.59,140.18S1790.34,922.38,1725,875q-130,283.56-279.39,557.7c-36.05,66.13-75.64,134.71-140,173.88-86.52,52.67-209.3,35.07-277.54-39.78C1150.08,1241.19,1369.67,931.33,1635.91,707.78Z" transform="translate(-430.21 -103)" fill="#ffc179"/>
        <path d="M1428.59,1223.89c-29.46,14.58-60,25-93.44,37.15q9.82-37.57,19.63-75.14a569.24,569.24,0,0,1-90.17-67.86c-97.45,140.83-178.15,293-236.49,448.73,68.24,74.85,191,92.45,277.54,39.78,64.33-39.17,103.92-107.75,140-173.88q47.22-86.65,92.54-174.32A576.52,576.52,0,0,1,1428.59,1223.89Z" transform="translate(-430.21 -103)" fill="#7d2c0b"/>
        <path d="M1960.88,865.49c74.93-30,137-84.71,195.59-140.18S2273,611.83,2343.68,572.86c9.6-91.56,32-190.13,41.63-281.69-78,41.46-120.75,132.55-89.45,215.2-202.1,91.23-413.6,162.92-632.51,197.28,9,11.17,17.62,22.55,24.85,34.54a585.09,585.09,0,0,1,64.42,151.93C1815.45,915.14,1895.92,891.47,1960.88,865.49Z" transform="translate(-430.21 -103)" fill="#ff5d17"/>
        <path d="M2276.57,617.53a520.14,520.14,0,0,1,67.11-44.67c9.6-91.56,32-190.13,41.63-281.69-78,41.46-120.75,132.55-89.45,215.2l-.51.23q6.86,13,14.66,25.53C2288.18,554.25,2276.1,586.22,2276.57,617.53Z" transform="translate(-430.21 -103)" fill="#7d2c0b"/>
        <path d="M1960.88,865.49c74.93-30,137-84.71,195.59-140.18S2273,611.83,2343.68,572.86c2.05-19.57,4.69-39.47,7.67-59.55-50.78,34.76-99.12,73.44-147.72,111.28-78.7,61.27-160,121.42-252.52,158.62S1753.82,839.59,1660.65,804c-30.33,122.21-60.81,244.9-108,361.63s-112.05,228.12-203,315.18c-67.83,64.93-151.19,115.55-241.32,140.15,63.63,24.7,138.8,21.25,197.36-14.4,64.33-39.17,103.92-107.75,140-173.88Q1594.91,1158.75,1725,875C1790.34,922.38,1885.94,895.46,1960.88,865.49Z" transform="translate(-430.21 -103)" opacity="0.1"/>
        <path d="M1846,898.43a689.52,689.52,0,0,0-92.06-211.19q-45.06,9.22-90.55,16.41c9,11.17,17.62,22.55,24.85,34.54a585.09,585.09,0,0,1,64.42,151.93C1781.13,901.47,1813.28,902.8,1846,898.43Z" transform="translate(-430.21 -103)" fill="#bd4511"/>
      </g>
    </g>
  </g>
  <circle cx="1618.79" cy="188" r="188" fill="#fff"/>
</svg>
