<?xml version="1.0" encoding="UTF-8" standalone="no"?>
<!-- Created with Inkscape (http://www.inkscape.org/) -->

<svg
   version="1.1"
   id="svg2"
   width="300"
   height="118"
   viewBox="0 0 300 118"
   sodipodi:docname="logo-caller-vector.svg"
   inkscape:version="1.1 (c68e22c387, 2021-05-23)"
   xmlns:inkscape="http://www.inkscape.org/namespaces/inkscape"
   xmlns:sodipodi="http://sodipodi.sourceforge.net/DTD/sodipodi-0.dtd"
   xmlns="http://www.w3.org/2000/svg"
   xmlns:svg="http://www.w3.org/2000/svg">
  <defs
     id="defs6">
    <inkscape:path-effect
       effect="bspline"
       id="path-effect1449"
       is_visible="true"
       lpeversion="1"
       weight="33.333333"
       steps="2"
       helper_size="0"
       apply_no_weight="true"
       apply_with_weight="true"
       only_selected="false" />
  </defs>
  <sodipodi:namedview
     id="namedview4"
     pagecolor="#ffffff"
     bordercolor="#666666"
     borderopacity="1.0"
     inkscape:pageshadow="2"
     inkscape:pageopacity="0.0"
     inkscape:pagecheckerboard="0"
     showgrid="false"
     inkscape:object-paths="true"
     inkscape:zoom="0.90509668"
     inkscape:cx="2.7621359"
     inkscape:cy="200.53106"
     inkscape:window-width="1366"
     inkscape:window-height="705"
     inkscape:window-x="-8"
     inkscape:window-y="-8"
     inkscape:window-maximized="1"
     inkscape:current-layer="g8"
     inkscape:snap-global="false" />
  <g
     inkscape:groupmode="layer"
     inkscape:label="Image"
     id="g8">
    <g
       id="g70817"
       transform="translate(-707.22943,-60.34632)">
      <g
         id="g70858"
         transform="matrix(0.94313414,0,0,0.94313414,718.27456,64.031194)">
        <path
           style="fill:#575757;fill-opacity:1;stroke:none;stroke-width:1px;stroke-linecap:butt;stroke-linejoin:miter;stroke-opacity:1"
           d="m 24.519932,60.163228 c 0.499168,1.229135 0.997355,2.455856 1.496033,3.683784 -0.455938,0.29869 -0.911636,0.597222 -1.418403,0.888838 -0.506767,0.291615 -1.064487,0.576185 -1.60132,0.817127 -0.536833,0.240941 -1.052897,0.438248 -1.547808,0.603065 -0.49491,0.164817 -0.968767,0.297115 -1.519544,0.418158 -0.550777,0.121044 -1.17857,0.230778 -1.715966,0.303243 -0.537396,0.07246 -0.984477,0.10759 -1.475472,0.123325 -0.490994,0.01574 -1.025963,0.012 -1.515763,-0.01038 -0.4898,-0.02238 -0.93448,-0.06351 -1.33194,-0.112659 -0.397461,-0.04915 -0.747731,-0.106414 -1.125453,-0.182352 -0.377723,-0.07594 -0.782912,-0.170637 -1.219063,-0.29267 -0.43615,-0.122032 -0.903264,-0.2715 -1.277582,-0.402493 C 9.8933322,65.86922 9.611819,65.75661 9.1765527,65.551585 8.7412864,65.346559 8.1523043,65.04901 7.710607,64.807911 7.2689098,64.566812 6.974553,64.38205 6.7112521,64.206863 6.4479512,64.031676 6.2157537,63.865996 5.9787664,63.686206 5.741779,63.506416 5.5000556,63.312458 5.2682495,63.115303 5.0364435,62.918147 4.814617,62.717739 4.5808986,62.491619 4.3471803,62.265499 4.1016453,62.013615 3.8877295,61.781742 3.6738138,61.549869 3.4915975,61.337965 3.3009957,61.10098 3.110394,60.863994 2.9114915,60.601896 2.7278633,60.343757 2.5442351,60.085618 2.3759738,59.831415 2.2204843,59.580894 2.0649947,59.330374 1.9223673,59.083525 1.7770835,58.810683 1.6317996,58.537841 1.483958,58.239006 1.3316371,57.893171 1.1793162,57.547336 1.0226381,57.154517 0.9011005,56.820332 0.77956287,56.486148 0.6932791,56.210628 0.61762766,55.942067 0.54197623,55.673507 0.47704411,55.411942 0.40488668,55.035572 0.33272924,54.659202 0.25345999,54.168095 0.2042183,53.802444 0.15497661,53.436793 0.13586204,53.196676 0.12380852,52.89661 0.111755,52.596543 0.10683467,52.236606 0.10897546,51.958632 c 0.002141,-0.277974 0.0114013,-0.473908 0.0299906,-0.711991 0.0185894,-0.238083 0.0465504,-0.518241 0.0809366,-0.786194 0.0343862,-0.267953 0.0752372,-0.523613 0.12623013,-0.789938 0.0509929,-0.266325 0.11215748,-0.543222 0.1924044,-0.850612 0.0802469,-0.307389 0.17959756,-0.645157 0.28020642,-0.95142 C 0.91935248,47.562215 1.0212271,47.287574 1.1342787,47.010641 1.2473304,46.733707 1.3715526,46.454589 1.5004434,46.187084 1.6293343,45.919578 1.7628762,45.663789 1.9434495,45.352645 2.1240227,45.041501 2.351589,44.675126 2.562778,44.359308 2.7739671,44.043489 2.9687228,43.778347 3.1682133,43.524181 3.3677038,43.270015 3.5718688,43.026919 3.8162515,42.758752 4.0606341,42.490586 4.345155,42.197444 4.5700176,41.975655 c 0.2248626,-0.221788 0.3899909,-0.372153 0.6107137,-0.559722 0.2207228,-0.18757 0.4969614,-0.412285 0.8182752,-0.651834 0.3213139,-0.239549 0.6875892,-0.493866 1.0443849,-0.722277 0.3567957,-0.22841 0.7039857,-0.430863 0.9638381,-0.57624 0.2598523,-0.145376 0.432277,-0.233652 0.7408107,-0.374823 0.3085336,-0.141171 0.7530684,-0.335221 1.2289216,-0.516333 0.4758532,-0.181112 0.9828672,-0.349284 1.4547492,-0.485243 0.471882,-0.135958 0.908486,-0.239724 1.350497,-0.32639 0.442012,-0.08667 0.8893,-0.15627 1.265384,-0.204539 0.376083,-0.04827 0.680859,-0.07525 1.041099,-0.09404 0.36024,-0.01879 0.775849,-0.02944 1.236876,-0.02092 0.461027,0.0085 0.967363,0.03612 1.619314,0.118092 0.651952,0.08197 1.449391,0.218153 2.009939,0.331033 0.560548,0.112879 0.884129,0.202313 1.343699,0.357819 0.45957,0.155506 1.055079,0.376953 1.548113,0.582665 0.493033,0.205711 0.883566,0.395539 1.314805,0.632923 0.431239,0.237384 0.903184,0.522184 1.190449,0.700178 0.287265,0.177993 0.388723,0.248295 0.491328,0.319391 0,0 -2.228249,3.415801 -2.228249,3.415801 -0.154312,-0.101579 -0.307468,-0.202397 -0.585751,-0.363217 -0.278283,-0.160821 -0.680555,-0.380764 -1.040551,-0.557992 -0.359997,-0.177228 -0.677713,-0.311589 -1.040216,-0.443109 -0.362503,-0.13152 -0.769759,-0.260057 -1.179651,-0.366985 -0.409892,-0.106929 -0.822355,-0.192104 -1.155508,-0.250437 -0.333154,-0.05833 -0.586927,-0.08972 -0.914035,-0.114544 -0.327109,-0.02482 -0.727466,-0.043 -1.108119,-0.04407 -0.380652,-0.0011 -0.741485,0.01505 -1.094435,0.04538 -0.35295,0.03033 -0.6979,0.07493 -0.982168,0.119524 -0.284267,0.04459 -0.507749,0.08922 -0.752581,0.146536 -0.244832,0.05732 -0.510918,0.127356 -0.755602,0.199257 -0.244684,0.0719 -0.471393,0.146846 -0.726985,0.242164 -0.255592,0.09532 -0.541721,0.211594 -0.805646,0.329232 -0.263924,0.117639 -0.505526,0.236626 -0.701261,0.338319 -0.195735,0.101693 -0.345519,0.186075 -0.521173,0.292173 -0.175655,0.106099 -0.3771017,0.233887 -0.5928476,0.382248 -0.215746,0.148361 -0.4516222,0.321604 -0.6981471,0.520533 -0.2465249,0.19893 -0.5065499,0.425648 -0.6829847,0.585015 -0.1764346,0.15937 -0.2696418,0.251754 -0.3954584,0.38474 C 7.7560286,45.478948 7.597438,45.652692 7.4360531,45.843051 7.2746681,46.033411 7.1105555,46.240296 6.9638657,46.43799 6.8171759,46.635684 6.6879635,46.824088 6.5630546,47.020184 6.4381457,47.216281 6.3175803,47.41997 6.1984952,47.640078 6.0794101,47.860186 5.9618333,48.0966 5.8442269,48.364387 5.7266204,48.632174 5.6085237,48.9324 5.5091848,49.221309 5.4098459,49.510218 5.3290172,49.788265 5.2588491,50.08115 5.188681,50.374034 5.1291378,50.681615 5.084238,50.998673 c -0.0449,0.317057 -0.075519,0.646663 -0.087187,1.005222 -0.011668,0.358558 -0.00463,0.747533 0.015092,1.076393 0.019726,0.32886 0.052062,0.597773 0.09737,0.872169 0.045308,0.274395 0.1034923,0.554339 0.1849086,0.862258 0.081416,0.307918 0.1859269,0.643754 0.3043607,0.96606 0.1184338,0.322306 0.2504537,0.630618 0.3984417,0.933396 0.1479881,0.302779 0.3117039,0.599807 0.4810191,0.876779 0.1693152,0.276973 0.3440935,0.533914 0.5569576,0.812447 0.2128642,0.278534 0.4636779,0.578709 0.7691093,0.897664 0.3054313,0.318956 0.665333,0.656785 0.9698693,0.919673 0.3045363,0.262888 0.5536025,0.450944 0.7629787,0.600492 0.2093761,0.149549 0.3790102,0.260666 0.57564,0.380368 0.19663,0.119701 0.420219,0.248059 0.677842,0.382287 0.257624,0.134228 0.549247,0.27442 0.823544,0.394885 0.274298,0.120465 0.531249,0.221301 0.817236,0.320417 0.285987,0.09912 0.601001,0.19661 0.935766,0.284339 0.334766,0.08773 0.689291,0.165801 1.080734,0.231065 0.391443,0.06526 0.819839,0.117837 1.161451,0.149283 0.341611,0.03145 0.596488,0.04185 0.835612,0.04528 0.239124,0.0034 0.462536,-7.9e-5 0.728115,-0.01398 0.265578,-0.0139 0.573377,-0.03813 0.839123,-0.06626 0.265745,-0.02813 0.489498,-0.06011 0.751584,-0.107421 0.262086,-0.04732 0.562566,-0.109928 0.858703,-0.183021 0.296137,-0.07309 0.588011,-0.156628 0.862627,-0.245226 0.274615,-0.0886 0.532055,-0.182235 0.774635,-0.278979 0.242581,-0.09674 0.470377,-0.196585 0.718416,-0.316669 0.248038,-0.120085 0.5164,-0.260415 0.747779,-0.39005 0.231379,-0.129636 0.425853,-0.248592 0.632874,-0.385275 0.20702,-0.136683 0.426657,-0.291117 0.622272,-0.437257 0.195616,-0.14614 0.367157,-0.283924 0.538821,-0.421807"
           id="path1447"
           inkscape:path-effect="#path-effect1449"
           inkscape:original-d="m 24.519932,60.163228 c 0.499678,1.228928 1.496033,3.683784 1.496033,3.683784 0,0 -0.910877,0.59838 -1.367815,0.89607 -0.556743,0.285582 -1.114464,0.570151 -1.673195,0.853727 -0.515085,0.198315 -1.031149,0.395622 -1.548223,0.591933 -0.472877,0.133303 -0.946734,0.265602 -1.421601,0.396903 -0.626819,0.110738 -1.254612,0.220472 -1.883419,0.329209 -0.446099,0.03613 -0.893181,0.07125 -1.341272,0.105376 -0.533989,-0.0027 -1.068958,-0.0065 -1.604936,-0.0112 -0.443698,-0.04013 -0.888378,-0.08125 -1.334067,-0.123376 -0.349283,-0.05626 -0.699552,-0.113525 -1.050828,-0.171788 -0.404206,-0.0937 -0.809395,-0.1884 -1.215592,-0.284101 C 11.108885,66.281292 10.641772,66.131823 10.17365,65.981352 9.8931254,65.869737 9.6116122,65.757127 9.3290933,65.643515 8.7410874,65.346953 8.152105,65.049404 7.5621109,64.750848 7.2687421,64.567079 6.9743851,64.382318 6.6790222,64.196552 6.4478154,64.031866 6.2156179,63.866186 5.9824158,63.699502 5.7416828,63.506536 5.4999594,63.312578 5.2572313,63.117617 5.0363958,62.9182 4.8145691,62.717792 4.5917381,62.51638 4.3471932,62.265486 4.1016582,62.013602 3.8551182,61.760713 3.6738944,61.5498 3.4916779,61.337896 3.3084577,61.124987 3.110547,60.863878 2.9116443,60.60178 2.7117376,60.338676 2.54447,60.085463 2.3762091,59.831259 2.2069448,59.576051 2.0653114,59.330191 1.9226837,59.083342 1.7790531,58.835487 1.6322056,58.53764 1.4843639,58.238805 1.3355193,57.938964 1.179835,57.547129 1.023157,57.15431 0.86547586,56.760484 0.7801885,56.485952 0.69390459,56.210432 0.60661895,55.933906 0.54268429,55.673331 0.47775223,55.411766 0.41181887,55.149196 0.33354652,54.65907 0.25427734,54.167963 0.17400657,53.675847 0.15589117,53.43672 0.13677667,53.196603 0.11666167,52.955481 c -0.003921,-0.358951 -0.008841,-0.718888 -0.0147613,-1.079833 0.0102608,-0.194941 0.0195213,-0.390875 0.0277819,-0.587812 0.0289622,-0.279169 0.0569233,-0.559327 0.0838849,-0.840491 0.0418527,-0.25467 0.0827037,-0.51033 0.1225555,-0.766995 0.0621672,-0.275909 0.12333189,-0.552806 0.18349784,-0.83071 C 0.6199752,48.512858 0.7193259,48.17509 0.81767859,47.836315 0.92055761,47.562662 1.0224325,47.288021 1.1233095,47.012373 1.2485367,46.734244 1.3727589,46.455126 1.4959837,46.175002 1.6305308,45.920203 1.7640725,45.664413 1.896617,45.407618 2.1251926,45.042228 2.352759,44.675853 2.5793301,44.30847 2.7750938,44.044317 2.9698497,43.779175 3.1636095,43.513027 3.3687829,43.270921 3.5729481,43.027825 3.7761175,42.783723 4.0616493,42.491571 4.3461698,42.198429 4.629696,41.904282 4.7958312,41.754911 4.9609599,41.604547 5.1250918,41.453179 5.4023415,41.229454 5.6785802,41.004739 5.9538244,40.77902 6.3211143,40.525693 6.6873896,40.271376 7.0526722,40.016054 7.4008761,39.814593 7.7480661,39.61214 8.0942631,39.408683 c 0.1734318,-0.08728 0.3458567,-0.175555 0.517285,-0.264832 0.4455525,-0.193057 0.8900873,-0.387106 1.333631,-0.582159 0.5080339,-0.167179 1.0150479,-0.33535 1.5210719,-0.504526 0.437621,-0.102769 0.874224,-0.206535 1.309836,-0.311303 0.448308,-0.06861 0.895597,-0.138211 1.341895,-0.208817 0.305789,-0.02598 0.610565,-0.05296 0.914347,-0.08094 0.416627,-0.0097 0.832237,-0.02031 1.246856,-0.03196 0.507357,0.02861 1.013693,0.05622 1.51904,0.08282 0.79847,0.137191 1.595909,0.273377 2.392363,0.408565 0.324594,0.09044 0.648175,0.179871 0.970762,0.268307 0.596534,0.222456 1.192043,0.443903 1.786564,0.664354 0.391549,0.190836 0.782082,0.380664 1.171623,0.569496 0.472963,0.285811 0.944908,0.570611 1.415862,0.854416 0.103607,0.0721 0.307815,0.213289 0.307815,0.213289 0,0 -2.228249,3.415801 -2.228249,3.415801 0,0 -0.307625,-0.202158 -0.462937,-0.304737 -0.401288,-0.218952 -0.80356,-0.438895 -1.206839,-0.659843 -0.31673,-0.133367 -0.634446,-0.267729 -0.953169,-0.403093 -0.406273,-0.127542 -0.813529,-0.256079 -1.221793,-0.385619 -0.41148,-0.08418 -0.823943,-0.169354 -1.237415,-0.255531 -0.252784,-0.03039 -0.506558,-0.06177 -0.761337,-0.09416 -0.399374,-0.01717 -0.799732,-0.03534 -1.201098,-0.05452 -0.359848,0.01713 -0.720681,0.03325 -1.082522,0.04837 -0.343963,0.0456 -0.688912,0.09021 -1.034868,0.133809 -0.222492,0.04563 -0.445975,0.09025 -0.670462,0.133875 -0.265096,0.07104 -0.531182,0.141077 -0.798273,0.210116 -0.20198,0.135923 -0.4489,0.149726 -0.67485,0.223089 -0.285141,0.117281 -0.57127,0.233557 -0.858405,0.348836 -0.240612,0.119992 -0.482214,0.238979 -0.724821,0.356968 -0.148788,0.08538 -0.29857,0.169765 -0.449355,0.253147 -0.200454,0.128793 -0.4019005,0.256581 -0.6043506,0.383372 -0.1713389,0.248337 -0.4648296,0.343136 -0.6987444,0.513204 -0.2590354,0.227727 -0.5190604,0.454445 -0.7800907,0.680168 -0.079519,0.105313 -0.1849778,0.185337 -0.2789667,0.276505 -0.1575968,0.17475 -0.3161872,0.348494 -0.4757808,0.521241 -0.1631192,0.207893 -0.3272319,0.414778 -0.4923479,0.620668 -0.1282176,0.189411 -0.25743,0.377815 -0.3876451,0.565223 -0.1195702,0.204697 -0.2401356,0.408386 -0.3617034,0.611079 -0.1165812,0.237422 -0.2341577,0.473836 -0.3527365,0.709254 -0.1041355,0.304948 -0.2347245,0.60026 -0.3535868,0.89889 -0.079832,0.279059 -0.1606609,0.557106 -0.2424914,0.83416 -0.058545,0.308592 -0.1180884,0.616173 -0.1786325,0.922759 0.00233,0.330347 -0.059942,0.657013 -0.091413,0.984019 0.00803,0.389992 0.015067,0.778967 0.021101,1.166951 0.036605,0.269253 0.065641,0.538563 0.096961,0.806345 0.059187,0.280955 0.1173719,0.560899 0.1745578,0.839849 0.1055151,0.33685 0.210026,0.672686 0.313539,1.00753 0.1288815,0.311609 0.2652297,0.618068 0.3963446,0.925603 0.1647223,0.298039 0.328438,0.595067 0.491157,0.891101 0.1757855,0.257952 0.350564,0.514893 0.5243461,0.77084 0.2518241,0.301188 0.5026382,0.601363 0.7524574,0.900545 0.3609161,0.338842 0.7208177,0.676671 1.0797266,1.013507 0.2500763,0.189064 0.4991426,0.37712 0.7472139,0.56418 0.1706407,0.112122 0.3402746,0.22324 0.5089114,0.333359 0.224598,0.129362 0.448186,0.25772 0.670778,0.38508 0.292636,0.141198 0.584259,0.28139 0.874888,0.420585 0.257962,0.10184 0.514913,0.202675 0.77087,0.302513 0.316028,0.0985 0.631043,0.195992 0.945065,0.292488 0.355539,0.07908 0.710065,0.157147 1.063598,0.234221 0.429412,0.05357 0.857807,0.106148 1.28521,0.157723 0.255887,0.01141 0.510764,0.02182 0.764646,0.03123 0.224421,-0.0025 0.447833,-0.006 0.67025,-0.01051 0.308809,-0.02323 0.616607,-0.04747 0.923411,-0.0727 0.224763,-0.03098 0.448517,-0.06295 0.671276,-0.09593 0.301492,-0.06162 0.601973,-0.124229 0.901459,-0.187844 0.292887,-0.08254 0.584761,-0.166075 0.875642,-0.250613 0.258449,-0.09264 0.515888,-0.18628 0.772332,-0.28092 0.228806,-0.09885 0.456604,-0.198686 0.683406,-0.29953 0.269372,-0.139335 0.537733,-0.279666 0.8051,-0.420999 0.195483,-0.117961 0.389958,-0.236917 0.583437,-0.356876 0.220646,-0.15344 0.440283,-0.307874 0.658924,-0.463312 0.172668,-0.136886 0.514993,-0.413649 0.514993,-0.413649" />
        <path
           style="fill:#575757;fill-opacity:1;stroke:none;stroke-width:0.1;stroke-linecap:butt;stroke-linejoin:miter;stroke-miterlimit:4;stroke-dasharray:none;stroke-opacity:1"
           d="m 33.852814,67.705679 h 5.335498 l 8.922688,-20.05432 8.923632,20.05432 h 5.427489 L 48.111,37.44032 Z"
           id="path11879"
           sodipodi:nodetypes="ccccccc" />
        <g
           id="g30571"
           style="opacity:1">
          <path
             style="fill:#575757;fill-opacity:1;stroke:none;stroke-width:1px;stroke-linecap:butt;stroke-linejoin:miter;stroke-opacity:1"
             d="m 206.75412,115.98005 c 0,0 -12.09667,-19.257811 19.14028,-38.979833 12.05086,-7.608528 32.13982,-21.520155 18.58739,-33.87359 -0.10379,-0.061 4.12737,15.947048 -21.05689,23.044303 -0.60553,0.170647 -39.41665,13.080568 -16.57321,50.39455"
             id="path15648"
             sodipodi:nodetypes="cscsc" />
          <path
             id="path17665"
             style="opacity:1;fill:#575757;fill-opacity:1;stroke:none;stroke-width:1px;stroke-linecap:butt;stroke-linejoin:miter;stroke-opacity:1"
             d="m 255,0.09179687 c -15.82251,0 -18.21484,18.67382813 -18.21484,18.67382813 -10.11904,6.255411 -10.85352,9.935547 -10.85352,9.935547 l -17.47852,8.46289 1.76368,4.675782 5.54101,-4.685547 -4.56836,6.275391 c 2.94372,10.854977 2.59766,20.779296 2.59766,20.779296 25.57359,-6.255412 27.04687,-17.109375 27.04687,-17.109375 -3.87612,-4.027927 -5.23046,-8.720703 -5.23046,-8.720703 4.81353,-4.683435 5.20312,-10.017578 5.20312,-10.017578 V 15.220703 c 3.51258,-11.9687768 17.17188,-12.2285155 17.17188,-12.2285155 -8.84648,2.3417172 -11.8379,12.8789065 -11.8379,12.8789065 0,0 4.03377,-7.4150791 20.42579,-8.5859378 C 282.95843,6.1142976 293.36523,22.246094 293.36523,22.246094 286.73037,7.2851224 270.82251,0.09179687 255,0.09179687 Z M 234.74023,26.996094 c 0.88273,-0.01054 1.49415,0.04883 1.49415,0.04883 l -7.91211,3.404297 c 1.03196,-2.975345 4.61793,-3.431624 6.41796,-3.453125 z"
             sodipodi:nodetypes="scccccccccccccscssccs" />
          <path
             style="fill:#575757;fill-opacity:1;stroke:none;stroke-width:0.3;stroke-linecap:butt;stroke-linejoin:miter;stroke-miterlimit:4;stroke-dasharray:none;stroke-opacity:1"
             d="m 249.0026,21.075455 c 0,0 41.89072,-16.3920205 50.9974,31.743279 0,0 1.82134,-25.75889 -14.57069,-34.605378 -16.39202,-8.846487 -30.44232,-5.464007 -36.42671,2.862099 z"
             id="path30238" />
          <path
             style="fill:#575757;fill-opacity:1;stroke:none;stroke-width:1px;stroke-linecap:butt;stroke-linejoin:miter;stroke-opacity:1"
             d="M 263.57329,87.684302 288.8118,70.511709 c 0,0 6.76496,-15.351258 -7.02516,-27.320035 -13.79011,-11.968777 -30.9627,-12.489159 -30.9627,-12.489159 0,0 44.75282,13.009541 12.74935,56.981787 z"
             id="path30419" />
        </g>
        <path
           style="fill:#575757;fill-opacity:1;stroke:none;stroke-width:1px;stroke-linecap:butt;stroke-linejoin:miter;stroke-opacity:1"
           d="m 72.029,37.44 v 28.794 h 18.306 v -4.6 H 77.181 V 37.44 Z"
           id="path34021"
           sodipodi:nodetypes="ccccccc" />
        <path
           style="fill:none;stroke:#000000;stroke-width:1px;stroke-linecap:butt;stroke-linejoin:miter;stroke-opacity:1"
           d="M 72.305195,66.601732 Z"
           id="path34023" />
        <path
           style="fill:none;stroke:#000000;stroke-width:1px;stroke-linecap:butt;stroke-linejoin:miter;stroke-opacity:1"
           d="M 71.477273,66.693723 Z"
           id="path34025" />
        <path
           style="fill:#575757;fill-opacity:1;stroke:none;stroke-width:1px;stroke-linecap:butt;stroke-linejoin:miter;stroke-opacity:1"
           d="M 99.626403,37.44 V 66.234 H 117.9324 v -4.6 h -13.154 V 37.44 Z"
           id="path36690"
           sodipodi:nodetypes="ccccccc" />
        <g
           id="g70799"
           transform="translate(255.46405,204.5103)">
          <path
             style="fill:#575757;fill-opacity:1;stroke:none;stroke-width:1px;stroke-linecap:butt;stroke-linejoin:miter;stroke-opacity:1"
             d="m -128.09958,-167.06998 v 28.794 h 18.306 v -4.6 h -13.154 v -24.194 z"
             id="path36810"
             sodipodi:nodetypes="ccccccc" />
          <path
             style="fill:#575757;fill-opacity:1;stroke:none;stroke-width:1px;stroke-linecap:butt;stroke-linejoin:miter;stroke-opacity:1"
             d="m -128.09958,-138.27598 v -28.794 h 18.306 v 4.6 h -13.154 v 24.194 z"
             id="path36812"
             sodipodi:nodetypes="ccccccc" />
          <path
             style="fill:#575757;fill-opacity:1;stroke:none;stroke-width:0.2;stroke-linecap:butt;stroke-linejoin:miter;stroke-miterlimit:4;stroke-dasharray:none;stroke-opacity:1"
             d="m -123.72037,-150.58498 h 11.448 v -4.619 h -11.448 z"
             id="path36847"
             sodipodi:nodetypes="ccccc" />
        </g>
        <path
           style="opacity:1;fill:#575757;fill-opacity:1;stroke:#575757;stroke-width:0.1;stroke-linecap:butt;stroke-linejoin:miter;stroke-miterlimit:4;stroke-dasharray:none;stroke-opacity:1"
           d="m 155.557,66.376598 v -28.886 h 12.87915 c 0,0 8.83117,-0.183487 8.83117,8.923655 0,0 -0.27598,5.059522 -5.05953,6.163419 l 9.75108,13.798926 h -6.07142 L 164.94048,49.72594 c 0,0 2.64044,-0.02842 3.86363,-0.09199 2.03493,-0.105752 2.80223,-1.720246 2.98972,-3.725649 0.14531,-1.554212 -1.11686,-3.693167 -2.62175,-3.817703 -2.44657,-0.202464 -8.83113,0 -8.83113,0 l -0.1839,24.286 z"
           id="path50214"
           sodipodi:nodetypes="ccccccccsssccc" />
      </g>
    </g>
  </g>
</svg>
